<svg id="Layer_1" xmlns="http://www.w3.org/2000/svg" width="551px" height="212.1px" viewBox="0 0 551 212.1"><style>.st0{fill:#FFFFFF;}</style><path class="st0" d="M209.6 93.3c-10 13.3-16.6 13.9-28.2 13.9-6.9 0-11.6 3-14.3 9.2-1.2 2.8-3.3 5.8-4.5 7.6l-.9 1.3s0 .1-.1.1c-.1-.3-.1-.8-.1-1.4 0-1 .1-2.3.5-4.1.1-.4.1-.8.1-1.2 0-1.5-.7-2.5-1.3-3-2.1-1.8-5.1-.6-8.1.5-.7.3-1.6.6-2.3.8-4.3-5.6-9.3-6.2-18.9-5.1-4.2.5-7.3-.6-9.8-1.4-1.8-.6-3.4-1.1-5.1-1-5.6.4-8.1 10.5-8.5 9-.2-.6-.4-1.4-.5-2.7-.4-4.8-4.5-6.6-5.8-7.2-3.7-1.7-9.2-1.2-11.8-.7-3 .6-4.8-.9-5.8-2.2-1.6-2.3-1.9-5.6-.6-7.7.8-1.4 2.4-2.2 4.1-2.2 2.3 0 4.4 1.5 5.9 4.3 2.3 4 5.4 3.3 6.8 3 .3-.1.7-.2.9-.2 0 0 .2.1.5.6 1.3 2 7 4.4 10.3 4.6 2 .2 3.6-.3 4.6-1.4 2.7-2.9 4.9-4.3 6-4.7 2.7 3.9 7.1 6.3 13.3 6.8 6.4.5 10.8-2.7 11.3-8.3.2-2.2-.5-4.2-1.9-5.8-1.9-2.2-5.1-3.5-8.7-3.7l-2.8.3c-.1 0-.3.1-.5.1.9-1 2.6-1.9 5.8-2.5 5.4-1 13.1 1.4 17.1 4.2 1.8 1.3 2.6 2.4 2.7 3v.4c-.2.2-1.4.5-2.1.7-1.2.4-2.7.8-3.9 1.6-2.7 1.7-4.1 4.2-3.9 6.9.2 2.6 2 4.8 4.5 5.9 3.2 1.3 6.9.5 10-2.1 4.5-3.8 4.6-7.9 4.6-10.9l-.1-.4c2.6-.3 4.9-1.9 6.3-4.6 1.2-2.3 1.5-5.2.6-7.9 5.6-2.7 7.4-6.1 7.9-8.6.7-3.6-1.1-6.6-2.8-8.1-5-4.3-10.7-2-13.1-.9-1.3.6-4.6 1.6-5.6-.6-.5-1.1-.2-2.7.9-3.2 1.5-.7 3.8-.5 6-.3 3.3.2 6.7.5 8.9-1.9 1.5-1.7 2-4.3 1.4-7.8-1.1-6.4-7.2-16.3-14.4-17.2-2.4-.3-6.8.2-9.7 7-3.6 8.2-8 13.9-11.7 15.3-.9.3-1.7.4-2.4 0-2.3-1.1-2.4-2.1-.6-7.4 1.4-4.1 3.4-9.8-.7-14.6-2.6-3-9.6-5.4-14.5-3.9-2.9 1-4.8 3.3-5 6.4-.4 4.9-2.4 7.4-4.3 8.2-.9.4-1.7.4-2.2-.1-.6-.5-.8-1.8-.4-3.3 3.7-12.7 2.8-29.8-9.9-44.7L99 3.4c13.8 16.1 12 35.2 6.3 46.6-4.4 8.7-11.3 12.5-15.8 13-4.4.6-9.9.4-11-3.7-1-3.5 1.5-7.8 2.5-8.3 1.1-.2 3.7 1.5 5.6 2.7 2.9 1.8 5.6 3.5 8.2 2.6.9-.3 2.2-1.2 2.8-3.2 2-6.6-9.7-18.2-9.8-18.3C82 29.1 70.4 24.4 64 22.9c-5.1-1.2-8.7-.8-11.1 1.3-1.6 1.4-2.4 3.4-2.4 6 0 .4 0 .8.1 1.2.4 4.6 1.9 9.8 3.4 14.9 1.5 5.3 3.1 10.8 3.3 14.9v1.7c0 3.4-.6 3.9-2.1 5.2l-2.5 2.3c-1.5 1.6-3.9 4.1-3.9 7.4v.5c.2 2.2 1.4 4.2 3.7 6.1 4.5 3.5 5.6 5.8 5.8 6.5-.4.2-1.8.5-5.2-.2-8.4-1.7-12.8 1.4-14.2 4.9-.6 1.4-.6 2.9-.3 4.4h-.2C30.3 98.4 17 99.3 0 112.7l3.2 4.1c15.5-12.2 27.1-13.1 34.1-11.7 6.3 1.3 11.7 5.1 14.5 10.1.8 1.5 1 3.4.3 5-.8 2-2.6 3.6-5.1 4.5-2.4.9-5.6 1.2-8.9 1.6-7.7.8-17.4 1.9-18.4 11.6-.9 8.2 7.3 19.8 16.2 22.9 6.4 2.2 12.2 0 16.1-6.2l1-1.6c2.7-4.3 5.5-8.8 7.9-9.3.3-.1 1.1-.2 2.6.9 2.5 1.9 1.6 8 .9 12.9-.7 5.4-1.4 10 1.2 12.5.9.9 2.5 1.8 5.2 1.3 3.9-.7 6.7-4.9 9.8-9.7 2.9-4.4 6.1-9.3 9.8-10.3 2.1-.6 3.8-.2 5.1 1 2.5 2.4 4.1 9.3 1.1 21.1v.1c-3.4 16.7 1.5 29.7 14.6 38.5l2.9-4.3c-11.4-7.7-15.4-18.5-12.4-33.2.9-4.3 3.7-8.5 6.5-10 1.6-.8 2.5-.4 2.8-.3.6.3 1 .6 1.2 1.3.5 1.4.2 4.3-2.1 8.2-2.7 4.6-1.2 7.8 0 9.3 2.9 3.9 9.1 4.8 13.4 3.8 3.8-.9 6.4-3.3 6.9-6.5.7-4.5-1.2-9.4-3.1-14.3-1.8-4.7-3.7-9.5-2.5-12.4.8-1.9 2.9-3 4.5-3.2 1.1-.1 1.7.1 1.9.3.2.2.3 1-.4 2.6-2.1 5-1.2 10.1 2.2 12.8 3.7 2.8 8.9 2.2 14.1-1.8 3.6-2.8 5.4-5.8 5.1-8.9-.4-5.2-6.2-8.4-8.4-9.6-.7-.4-.9-1.3-.7-1.9.4-1.1 2.2-.8 2.9-.6 2.1.5 4.2-.1 5.9-1.7 1.9-1.9 2.7-4.7 2.1-7.6-.9-4.2-3-8.4-12.5-11.2-11-3.1-16.2-.5-22.8 2.8l-3 1.5c-6.2 3-8.5 2.2-12 .5-3.5-1.7-9.6-4.7-17.8-3.1-2.8.6-5.6-.1-8.2-2-4.4-3.1-6.1-8.8-7-15.2C69.5 97.7 75.1 89 81.1 87c7.3-2.4 14-1.1 22.5 4.5 6.3 4.2 9.9 3.9 16.9 3.3h.5c1.4-.1 2.5-1.4 2.3-2.8-.1-1.4-1.4-2.5-2.8-2.3h-.5c-.3 0-.6.1-.9.1-5-.5-8.4-6.2-9.4-10.9-.6-2.9-.6-7 3.1-10.6 1.4-1.3 3.7-2.1 6.1-1.9 1.2.1 3.2.5 5 1.9-2.9.6-5.4 2.6-6.5 5.4-.5 1.1-.7 2.1-.7 3.2 0 2.1.9 4 2.5 5.5 2.9 2.5 7.4 2.7 11 .4 1.1-.7 1.9-1.6 2.5-2.7 1.3 1.6 2.8 3 4.2 4.3-3.6.9-7.9 2.7-9.4 7.5-.6 2 .1 3.3.6 3.9 1.6 1.8 4.3 1.4 6.7 1l1.7-.2c2.2-.3 4 .6 5 1.9.5.6.7 1.2.6 2-.2 2.7-2.2 3.9-5.7 3.6-5.1-.4-8.4-2.1-10-5.2-.5-1-1.5-1.6-2.6-1.8-3.1-.4-7.5 3-10.6 6.3-1.4.3-6.1-1.6-7.2-2.5-2.4-3.5-5.4-2.8-6.8-2.5 0 0-.7.1-.8.1 0 0-.2-.2-.4-.6-2.5-4.4-6.3-6.9-10.4-6.9-3.5 0-6.8 1.8-8.6 4.8-2.3 3.9-1.9 9.4.9 13.4 2.6 3.6 6.6 5.2 11 4.3 2.7-.5 6.6-.6 8.7.3 2.4 1.1 2.7 2 2.8 2.9.7 7.3 3.9 8.4 5.2 8.5.9.1 3.8 0 5.3-4.6.8-2.6 3.2-5.6 4.2-5.7.6-.1 1.8.4 2.9.8 2.8.9 6.7 2.2 12 1.6 10.4-1.2 12.2 0 14.8 3.8 1.6 2.4 4.7 1.3 7.6.2.6-.2 1.4-.5 2.2-.8-.2 1.4-.3 2.6-.3 3.7 0 4.5 1.7 6.3 3.3 6.9 2.2.9 4.8-.3 6.4-2.9l.7-1.1c1.3-2 3.6-5.2 5-8.5 1.4-3.2 3.5-6.1 9.5-6.1 12.6 0 20.8-.8 32.3-16l-3.9-3.2zm-50.5-4.1c-1.2-.9-2.7-1.7-4.3-2.4l1.5-.8c3.8-2 6-3 8.4-2.6-2.9 1.7-4.4 4.1-4.8 6.4-.2-.2-.5-.4-.8-.6zm1.4 16.5c-1.6 1.4-3.3 1.8-4.7 1.3-.8-.3-1.3-.9-1.4-1.6v-.1c0-.9.9-1.6 1.5-2 .7-.4 1.7-.7 2.6-1 1.3-.4 3.3-1 4.6-2.4 0 2.1-.3 3.9-2.6 5.8zm9.5-14.3c-.5 1-1.7 2.5-4 1.7-.9-.3-1.1-1.2-1.1-1.7v-.3c.2-1.5 1.7-3.4 5.1-4.1.3.7.5 1.4.5 2.1 0 .8-.2 1.6-.5 2.3zM128.6 77c-.1.4-.3.9-1.1 1.4-2 1.2-4 .9-4.9.1-.8-.7-.9-1.6-.5-2.7.5-1.2 1.6-2.1 2.9-2.3.8-.1 1.9-.3 2.9.8l.1.1c.5.7.5 1.4.5 2.2.2.1.1.2.1.4zm3.8-6.2c-.1-.1-.2-.2-.2-.3-.6-1.1-1.4-2.2-2.3-3.4-2.5-3.4-6.3-5.5-10.5-5.8-3.9-.3-7.7.9-10.1 3.3-4.2 4.1-5.8 9.5-4.5 15.4.8 3.6 2.6 6.7 5.2 9.2-1-.4-2.1-1-3.4-1.9-9.8-6.5-18.1-8.1-27-5.1-9.2 3.1-15.3 14.7-13.6 26 1.1 7.7 3.6 14.8 9.2 18.7 3.8 2.7 8 3.7 12.2 2.8 6.4-1.3 11.3 1.1 14.5 2.7 4 2 8.1 3.6 16.6-.4l3.1-1.5c6.4-3.2 10-5 19-2.4 7.2 2.1 8.2 4.5 8.8 7.3.2 1.1 0 2.2-.6 2.8-.3.3-.7.5-1 .4-5.1-1.2-8 1.3-9 3.8-1.2 3.1.1 6.7 3 8.3 1.4.8 5.6 3.1 5.8 5.5.1 1.6-1.6 3.2-3.1 4.4-3.1 2.4-6.1 3.1-7.8 1.8-1.6-1.2-1.8-3.9-.7-6.7 1.7-3.9.8-6.4-.3-7.7-1.4-1.8-3.8-2.7-6.6-2.3-3.8.5-7.3 3-8.7 6.3-2.1 4.9.2 10.7 2.4 16.3 1.6 4.2 3.3 8.5 2.8 11.5-.2 1.5-2 2.1-3 2.4-3 .7-6.8-.1-8.1-1.9-.2-.3-1-1.3.3-3.6 2.7-4.7 3.6-9.1 2.5-12.4-.7-2-2.1-3.6-4.1-4.4-2.3-.9-4.7-.8-7.2.5-.8.4-1.6 1-2.3 1.6 0-5.7-1.5-10.2-4.3-13-2.6-2.6-6.1-3.4-10-2.4-5.5 1.5-9.4 7.3-12.8 12.5-2.1 3.2-4.8 7.5-6.5 7.7-.6.1-.7-.3-.7-.3-.6-.8 0-5.3.4-8 .9-6.6 2-14-2.9-17.7-2.2-1.7-4.5-2.3-6.7-1.9-4.7.9-7.8 5.9-11.4 11.6l-1 1.6c-2.6 4.1-5.9 5.5-10 4-7.3-2.5-13.4-12-12.8-17.4.5-5 4.8-6 13.8-7 3.4-.4 7-.8 10-1.8 4-1.4 6.9-4 8.2-7.5 1.2-3.1 1-6.5-.6-9.4-2-3.6-5-6.7-8.5-8.9-3.6-2.3-4.7-4.8-4.1-6.2.6-1.5 3.5-2.7 8.3-1.7 7.4 1.5 10-.6 11-2.7 1.6-3.4-1-7.8-7.3-12.8-.8-.6-1.7-1.5-1.7-2.3-.1-1.2 1.5-2.9 2.5-3.9l2.1-1.9c2.9-2.4 4.2-4.2 3.9-11-.2-4.8-1.9-10.6-3.5-16.2-1.4-4.8-2.9-9.8-3.2-13.9-.1-1-.1-2.3.6-2.9.4-.4 2-1.2 6.5-.1 5.9 1.4 16.6 5.7 21.4 10.4 4.9 4.8 8.4 10.8 8.5 12.8-.9-.4-2.3-1.2-3.3-1.9-2.9-1.8-6.1-3.9-9.3-3.4-4.1.6-7.7 7.6-6.9 13.4.5 3.2 3 10.6 16.9 8.8 7.7-1 15.3-7.1 19.8-15.9 0-.1.1-.1.1-.2 2 1.6 4.8 1.9 7.5.8 4.2-1.8 7-6.5 7.4-12.6.1-1 .5-1.6 1.4-1.9 2.8-.9 7.7.8 9 2.3 2 2.4 1.2 5.2-.3 9.5-1.5 4.2-3.7 10.6 3.3 13.8 2 .9 4.2 1 6.4.1 5.1-1.9 10.3-8.3 14.6-18 1.2-2.8 2.7-4.1 4.4-3.9 4 .5 9.1 7.8 10 12.9.5 2.8-.1 3.4-.1 3.5-.5.6-3 .4-4.7.2-2.8-.2-5.9-.4-8.6.8-3.6 1.6-5.1 6.1-3.5 9.9 1.4 3.3 5.5 6.1 12.3 3.3 3.2-1.3 5.6-1.8 7.7.1.5.4 1.4 1.7 1.1 3.3-.4 1.9-2.4 3.7-5.7 5.2-.4-.3-.7-.6-1.2-.9-6.8-4.5-11.4-2.2-17.1.8l-4.2 2.1c-4.4 1.7-12-3.9-17.5-13zM377.4 162.6c-3.2-1.5-5.6-2.1-6-9.1V67.8v.1c0-4.4 1.5-7.3 5.9-9.1.6-.3.4-1.4-.5-1.2-3.1.5-6.2.4-9.9.4s-6.8 0-9.9-.4c-1-.1-1.3.9-.5 1.2 4.4 1.8 5.9 4.7 5.9 9.1v83.6c0 8.9-2.6 9.2-6 11-1 .5-.9 1.4.8 1.3 2.6-.3 5-.3 9.8-.3 4.7 0 7.2 0 9.8.3 1.5.2 1.6-.8.6-1.2zm70.9-101.5v12.2h-1c-4.2-11-13.1-14-21.9-13.6-10.8.4-17.3 8.1-17.8 15.5-.8 10.4 5.1 16.8 23 30 18.6 13.9 22.5 19.6 22.5 31.7 0 11.2-8.9 27.1-28.7 27.1-8.6 0-19.6-3.1-25.5-3.6v-17.2h1.3c.9 9.8 8.1 16.8 24.4 16.8 15.4 0 21.2-12.1 20.7-19.8-.6-9.6-4.2-14.1-19.6-25.7-17.1-13-24.5-19.9-24.5-34.3 0-14.6 13-23.7 24.6-23.7 12.7.1 17.2 3.4 22.5 4.6zm95.2-4c-5.4 0-20.7.4-27.6.5h-18.5c-6.9-.1-22.2-.5-27.6-.5s-6.5 2.2-8.2 10.5c-.3 1.4.6 1.7 1.2.5 1.3-2.4 2.8-5.4 10.9-5.4h26.8c.8 1.4 1.2 3.2 1.2 5.1v85.8c-.4 6.7-2.8 7.2-6.2 8.7-1 .5-.9 1.4.8 1.3 2.6-.3 5.1-.3 10-.3 5 0 7.4 0 10 .3 1.7.1 1.8-.8.8-1.3-3.6-1.7-6.3-2.2-6.3-11V67.9v.1c0-2.1.4-3.7 1.2-5.1h28.5c8.1 0 8 2.8 9.4 5.4.6 1.2 1.3.9 1.2-.5-.5-8-2.2-10.7-7.6-10.7zm-202 53.5c0 32.8-25.5 55.2-55.2 55.2-32.7 0-55.2-24.8-55.2-55.2 0-33.4 24.8-55.2 55.2-55.2 30.5 0 55.2 23.1 55.2 55.2zm-58-51.8c-24.6 0-43.6 20.5-42 51.8 1.5 28.6 21 51.8 47.5 51.8 21.3 0 43.6-21 42-51.8-1.6-30.1-20.6-51.8-47.5-51.8z"/></svg>
